<svg width="65" height="65" viewBox="0 0 65 65" fill="none" xmlns="http://www.w3.org/2000/svg">
<g clip-path="url(#clip0)">
<path d="M56.6981 21.6052H39.3239L39.8704 13.306C40.0438 10.671 39.1082 8.05429 37.3032 6.12671C32.6061 1.11026 24.2696 2.52766 21.5192 8.85725L15.9792 21.6052H2.03667C0.911793 21.6052 0 22.5171 0 23.6418V59.8669C0 60.9917 0.911793 61.9036 2.03667 61.9036H17.3148C18.3671 61.9036 19.2327 61.1055 19.34 60.0817H35.5893C47.2633 60.0817 57.6532 52.6632 61.4433 41.6218L64.543 32.5926C66.391 27.2094 62.4058 21.6052 56.6981 21.6052ZM4.07334 25.6785H15.2781V57.8303H4.07334V25.6785ZM60.6904 31.27L57.5907 40.2994C54.3653 49.6954 45.5236 56.0083 35.5892 56.0083H19.3514V24.0652L25.255 10.4806C26.1296 8.46761 28.1131 7.16694 30.308 7.16694C33.4774 7.16694 36.0163 9.83816 35.8056 13.0384L35.1163 23.508C35.0393 24.6813 35.9703 25.6785 37.1486 25.6785H56.698C59.5947 25.6785 61.6331 28.5235 60.6904 31.27Z" fill="white"/>
<path d="M9.67585 35.2845C11.2145 35.2845 12.4618 34.0372 12.4618 32.4986C12.4618 30.9599 11.2145 29.7126 9.67585 29.7126C8.13723 29.7126 6.88994 30.9599 6.88994 32.4986C6.88994 34.0372 8.13723 35.2845 9.67585 35.2845Z" fill="white"/>
</g>
<defs>
<clipPath id="clip0">
<rect width="65" height="65" fill="white"/>
</clipPath>
</defs>
</svg>
