<svg width="63" height="63" viewBox="0 0 63 63" fill="none" xmlns="http://www.w3.org/2000/svg">
<g clip-path="url(#clip0)">
<path d="M57.238 15.7365H56.4541V8.12404C56.4541 4.94696 53.8693 2.36206 50.6921 2.36206H8.90034C4.28859 2.36206 0.486186 5.88952 0.0472482 10.3879C-0.0197861 10.7057 0.00408407 7.87347 0.00408407 51.7417C0.00408407 56.6471 3.99485 60.6379 8.90022 60.6379H57.2378C60.415 60.6379 62.9998 58.0531 62.9998 54.8759V21.4985C62.9999 18.3214 60.4152 15.7365 57.238 15.7365ZM8.90034 6.31993H50.6921C51.687 6.31993 52.4963 7.12929 52.4963 8.12416V15.7366H8.90034C6.25447 15.7366 4.08847 13.6448 3.96776 11.0283C4.08835 8.4116 6.25435 6.31993 8.90034 6.31993ZM57.238 56.6801H8.90034C6.17729 56.6801 3.96195 54.4648 3.96195 51.7417V18.1945C5.37573 19.1415 7.07459 19.6943 8.90034 19.6943H57.238C58.2328 19.6943 59.0422 20.5036 59.0422 21.4985V29.5211H44.1502C39.0785 29.5211 34.9523 33.6472 34.9523 38.7189C34.9523 43.7906 39.0785 47.9167 44.1502 47.9167H59.0422V54.8759C59.0422 55.8708 58.2328 56.6801 57.238 56.6801ZM59.0422 43.9591H44.1502C41.2608 43.9591 38.91 41.6084 38.91 38.719C38.91 35.8296 41.2607 33.479 44.1502 33.479H59.0422V43.9591Z" fill="white"/>
<path d="M44.8806 41.5868C46.4645 41.5868 47.7485 40.3029 47.7485 38.719C47.7485 37.1351 46.4645 35.8511 44.8806 35.8511C43.2967 35.8511 42.0127 37.1351 42.0127 38.719C42.0127 40.3029 43.2967 41.5868 44.8806 41.5868Z" fill="white"/>
</g>
<defs>
<clipPath id="clip0">
<rect width="63" height="63" fill="white"/>
</clipPath>
</defs>
</svg>
