<svg width="66" height="66" viewBox="0 0 66 66" fill="none" xmlns="http://www.w3.org/2000/svg">
<g clip-path="url(#clip0)">
<path d="M49.966 10.0988L37.8226 1.52707C34.9382 -0.509155 31.0621 -0.508895 28.1775 1.52707L16.0342 10.099C13.1138 12.1604 11.3703 15.5252 11.3703 19.0999V57.0778C11.3703 61.9976 15.3728 66 20.2925 66H45.7076C50.6274 66 54.6298 61.9976 54.6298 57.0778V19.0997C54.6298 15.525 52.8863 12.1603 49.966 10.0988ZM50.4732 57.0776C50.4732 59.7053 48.3354 61.8431 45.7076 61.8431H20.2924C17.6646 61.8431 15.5268 59.7053 15.5268 57.0776V19.0997C15.5268 16.8737 16.6125 14.7783 18.4312 13.4947L30.5745 4.92291C32.025 3.89895 33.9746 3.89882 35.4254 4.92291L47.5688 13.4947C49.3874 14.7784 50.4731 16.8737 50.4731 19.0997V57.0776H50.4732Z" fill="white"/>
<path d="M33 14.062C34.5188 14.062 35.75 12.8308 35.75 11.312C35.75 9.79323 34.5188 8.56201 33 8.56201C31.4812 8.56201 30.25 9.79323 30.25 11.312C30.25 12.8308 31.4812 14.062 33 14.062Z" fill="white"/>
<path d="M33.1096 35.7811C31.5275 35.7259 30.6198 34.5863 30.6198 33.361C30.6198 30.9207 33.8478 30.0254 35.1086 32.1169C35.701 33.0999 36.9783 33.4166 37.9613 32.824C38.9444 32.2314 39.2611 30.9542 38.6685 29.9711C37.8337 28.5861 36.5128 27.5735 35.0035 27.0959V25.9301C35.0035 24.7824 34.0729 23.8518 32.9252 23.8518C31.7774 23.8518 30.8469 24.7824 30.8469 25.9301V27.1644C28.2959 28.0683 26.4632 30.5041 26.4632 33.361C26.4632 37.0588 29.517 39.9341 32.9636 39.9341C34.2961 39.9341 35.3801 41.018 35.3801 42.3505C35.3801 44.791 32.1521 45.6862 30.8913 43.5945C30.2989 42.6115 29.0216 42.2949 28.0386 42.8875C27.0555 43.4801 26.7388 44.7573 27.3314 45.7404C28.1662 47.1254 29.4871 48.138 30.9964 48.6157V49.7815C30.9964 50.9293 31.927 51.8598 33.0747 51.8598C34.2225 51.8598 35.153 50.9293 35.153 49.7815V48.5473C37.704 47.6433 39.5367 45.2075 39.5367 42.3505C39.5367 38.7749 36.6667 35.8591 33.1096 35.7811Z" fill="white"/>
</g>
<defs>
<clipPath id="clip0">
<rect width="66" height="66" fill="white"/>
</clipPath>
</defs>
</svg>
