<svg width="20" height="18" viewBox="0 0 20 18" fill="none" xmlns="http://www.w3.org/2000/svg">
<path fill-rule="evenodd" clip-rule="evenodd" d="M1.36716 0.136807C0.949788 -0.125328 0.398941 0.000514912 0.136807 0.417884C-0.125328 0.835254 0.000514912 1.3861 0.417884 1.64823L1.97689 2.62739L2.31409 6.39646C2.31925 6.45412 2.32979 6.51 2.34516 6.56366L2.70797 11.3166C2.84252 13.0793 4.31208 14.441 6.07995 14.441H14.9771C16.4732 14.441 17.7914 13.458 18.2183 12.0242L19.9073 6.3509C20.3153 4.98065 19.2888 3.60401 17.8591 3.60401H4.40029C4.09226 3.60401 3.83517 3.36889 3.80772 3.06209L3.74145 2.32141C3.70004 1.85852 3.44464 1.4416 3.05109 1.19442L1.36716 0.136807ZM4.68755 5.38882C4.34114 5.38882 4.06798 5.68362 4.09434 6.02903L4.4876 11.1808C4.55114 12.0132 5.24511 12.6562 6.07995 12.6562H14.9771C15.6836 12.6562 16.3061 12.192 16.5077 11.5149L18.1967 5.84163C18.264 5.61575 18.0948 5.38882 17.8591 5.38882H4.68755ZM5.40724 17.6736C6.06386 17.6736 6.59616 17.1413 6.59616 16.4847C6.59616 15.8281 6.06386 15.2958 5.40724 15.2958C4.75062 15.2958 4.21833 15.8281 4.21833 16.4847C4.21833 17.1413 4.75062 17.6736 5.40724 17.6736ZM16.2748 16.4847C16.2748 17.1413 15.7425 17.6736 15.0859 17.6736C14.4292 17.6736 13.8969 17.1413 13.8969 16.4847C13.8969 15.8281 14.4292 15.2958 15.0859 15.2958C15.7425 15.2958 16.2748 15.8281 16.2748 16.4847ZM13.1406 6.29572C12.6478 6.29572 12.2482 6.69526 12.2482 7.18813C12.2482 7.68099 12.6478 8.08053 13.1406 8.08053H15.5387C16.0315 8.08053 16.4311 7.68099 16.4311 7.18813C16.4311 6.69526 16.0315 6.29572 15.5387 6.29572H13.1406Z" fill="#200E32"/>
</svg>
