<svg width="16" height="18" viewBox="0 0 16 18" fill="none" xmlns="http://www.w3.org/2000/svg">
<mask id="path-1-inside-1" fill="white">
<path fill-rule="evenodd" clip-rule="evenodd" d="M7.72136 8.54023C10.0797 8.54023 11.9915 6.62844 11.9915 4.27012C11.9915 1.9118 10.0797 0 7.72136 0C5.36304 0 3.45124 1.9118 3.45124 4.27012C3.45124 6.62844 5.36304 8.54023 7.72136 8.54023ZM7.72033 18C3.45651 18 0 16.9409 0 14.7486C0 12.5562 3.45651 10.0609 7.72033 10.0609C11.9842 10.0609 15.4411 12.5562 15.4411 14.7486C15.4411 16.9409 11.9842 18 7.72033 18Z"/>
</mask>
<path d="M7.72033 18V16H7.72033L7.72033 18ZM7.72033 10.0609V12.0609H7.72033L7.72033 10.0609ZM15.4411 14.7486H13.4411V14.7486L15.4411 14.7486ZM9.99147 4.27012C9.99147 5.52387 8.97511 6.54023 7.72136 6.54023V10.5402C11.1842 10.5402 13.9915 7.73301 13.9915 4.27012H9.99147ZM7.72136 2C8.97511 2 9.99147 3.01637 9.99147 4.27012H13.9915C13.9915 0.807227 11.1842 -2 7.72136 -2V2ZM5.45124 4.27012C5.45124 3.01637 6.46761 2 7.72136 2V-2C4.25847 -2 1.45124 0.807227 1.45124 4.27012H5.45124ZM7.72136 6.54023C6.46761 6.54023 5.45124 5.52387 5.45124 4.27012H1.45124C1.45124 7.73301 4.25847 10.5402 7.72136 10.5402V6.54023ZM-2 14.7486C-2 17.1336 -0.0796118 18.4372 1.54156 19.0624C3.2595 19.725 5.46395 20 7.72033 20L7.72033 16C5.71288 16 4.05717 15.7454 2.9809 15.3304C2.44507 15.1237 2.1693 14.9214 2.05056 14.7975C1.9983 14.743 1.99007 14.7181 1.99371 14.7265C1.9991 14.739 2 14.752 2 14.7486H-2ZM7.72033 8.06088C5.21341 8.06088 2.90659 8.79042 1.17994 9.90009C-0.435972 10.9386 -2 12.6374 -2 14.7486H2C2 14.6673 2.16423 14.0224 3.34252 13.2651C4.41008 12.579 5.96343 12.0609 7.72033 12.0609V8.06088ZM17.4411 14.7486C17.4411 12.6373 15.8768 10.9385 14.2609 9.90006C12.5341 8.79042 10.2272 8.06087 7.72033 8.06088L7.72033 12.0609C9.47724 12.0609 11.0307 12.579 12.0984 13.2651C13.2769 14.0224 13.4411 14.6674 13.4411 14.7486H17.4411ZM7.72033 20C9.97671 20 12.1812 19.725 13.8993 19.0624C15.5204 18.4373 17.4411 17.1337 17.4411 14.7486L13.4411 14.7486C13.4411 14.752 13.442 14.739 13.4474 14.7265C13.451 14.718 13.4428 14.7429 13.3905 14.7975C13.2718 14.9214 12.9959 15.1237 12.46 15.3303C11.3836 15.7454 9.72777 16 7.72033 16V20Z" fill="#200E32" mask="url(#path-1-inside-1)"/>
</svg>
