<svg width="219" height="33" viewBox="0 0 219 33" fill="none" xmlns="http://www.w3.org/2000/svg">
<path d="M106.505 18.6098H111.968V25.7168H116.693V8.30851H111.968V14.7539H106.505V8.2896H101.78V25.7168H106.505V18.6098ZM62.8426 11.8809V25.7168H70.5356C72.6336 25.7168 74.3348 24.0157 74.3348 21.9176H67.5491V8.30851H62.8426C58.1362 8.30851 57.1155 7.0043 57.1155 7.0043V8.68654C57.0966 10.0663 58.4197 11.8809 62.8426 11.8809ZM80.9125 8.30851H76.1871V25.7168H80.9125V8.30851ZM99.2469 15.1886H94.2002C91.6296 15.0374 91.0059 14.6594 91.0059 14.6594V16.0959C91.0059 17.4001 91.932 19.0257 94.8429 19.4415V21.8987C94.2569 22.031 92.9338 22.1066 92.2345 22.1066C90.9492 22.1066 89.9852 21.6719 89.3047 20.8213C88.6243 19.9707 88.2841 18.7232 88.2841 17.0977C88.2841 15.4344 88.6621 14.168 89.4181 13.2607C90.1742 12.3723 91.2327 11.9187 92.6125 11.9187C92.9527 11.9187 93.2741 11.9376 93.5954 11.9565C96.4873 12.2778 97.9994 11.0303 98.7555 8.74324C98.7555 8.74324 97.9427 8.87555 95.6745 8.36521C94.7106 8.13839 93.671 8.06278 92.5747 8.06278C89.6828 8.06278 87.4335 8.83775 85.8269 10.4066C84.2202 11.9754 83.4264 14.168 83.4264 16.9654C83.4264 19.8573 84.1635 22.0688 85.6189 23.6187C87.0933 25.1686 89.1535 25.9625 91.8375 25.9625C94.2758 25.9625 97.1867 25.6223 99.228 24.9229V15.1886H99.2469Z" fill="white"/>
<path d="M152.02 16.5826V16.4692C152.833 16.2802 153.494 15.8266 154.005 15.1272C154.496 14.4278 154.761 13.5962 154.761 12.6322C154.761 11.139 154.194 10.0616 153.041 9.34334C151.888 8.64398 148.807 8.28485 146.444 8.28485H139.356V11.8761V25.712H148.466C150.508 25.712 152.133 25.2584 153.324 24.3511C154.515 23.4439 155.101 22.1964 155.101 20.6086C155.101 19.5501 154.855 18.6807 154.383 18.0191C153.872 17.3576 153.097 16.8661 152.02 16.5826ZM148.032 22.0829H144.044V11.8572H146.368C147.843 11.8572 149.903 12.3487 149.903 13.3316C149.903 13.8797 149.714 14.2955 149.355 14.579C149.223 14.6736 148.92 14.7492 148.542 14.8248C147.427 15.0138 146.293 14.9571 145.197 14.7114H145.178C145.178 14.7114 144.762 18.5484 148.448 18.5484C149.034 18.5484 149.43 18.7563 149.638 18.9264C150.035 19.2288 150.224 19.6825 150.224 20.2684C150.243 21.4592 149.506 22.0829 148.032 22.0829ZM199.217 15.3162C197.648 14.598 196.042 14.1065 195.682 13.8419C195.323 13.5773 195.153 13.2748 195.153 12.9157C195.153 12.5944 195.285 12.3298 195.569 12.1219C195.853 11.9139 196.287 11.8005 196.911 11.8005C197.27 11.8005 197.799 11.8572 198.366 11.9706C200.238 12.292 202.166 10.6286 202.071 8.30376C200.937 8.68179 198.858 8.03913 197.043 8.03913C195.002 8.03913 193.395 8.49276 192.223 9.38113C191.052 10.2695 190.466 11.5359 190.466 13.1425C190.466 13.9931 190.598 14.7492 190.881 15.3729C191.146 15.9967 191.581 16.5637 192.148 17.0362C192.715 17.5277 193.565 18.0191 194.7 18.5295C195.947 19.0965 197.384 19.4745 197.667 19.6447C197.951 19.8337 198.159 20.0038 198.291 20.1928C198.423 20.3629 198.48 20.5708 198.48 20.8165C198.48 21.1946 198.31 21.5159 197.988 21.7427C197.667 21.9884 197.157 22.1019 196.457 22.1019C195.777 22.1019 194.567 21.7616 193.641 21.5348C190.428 20.7409 189.539 23.2359 189.539 25.0694C192.167 25.2017 193.66 25.92 196.363 25.92C197.762 25.92 198.971 25.6931 199.992 25.2206C201.032 24.7481 201.807 24.1054 202.355 23.2737C202.903 22.4421 203.167 21.4781 203.167 20.4007C203.167 19.2288 202.884 18.2459 202.298 17.471C201.769 16.7338 200.729 15.9967 199.217 15.3162ZM212.259 8.30376H203.3V12.1597H207.553V25.712H212.259V12.1408C216.682 12.1408 217.986 10.0427 217.986 8.66288L218.308 6.98065C218.326 6.98065 216.966 8.30376 212.259 8.30376ZM164.344 7.7178C161.584 7.7178 159.807 8.51167 158.352 10.0805C156.897 11.6682 156.5 13.9553 156.5 16.9417C156.5 19.966 156.897 22.272 158.352 23.8597C159.807 25.4474 161.584 26.2413 164.306 26.2413C167.084 26.2413 168.861 25.4474 170.298 23.8786C171.734 22.3098 172.131 20.0038 172.131 16.9795C172.131 13.9364 171.753 11.6493 170.317 10.0805C168.88 8.51167 167.122 7.7178 164.344 7.7178ZM164.325 22.1964C161.981 22.1964 161.471 20.4574 161.471 16.9795C161.471 13.4639 162 11.706 164.344 11.706C165.497 11.706 167.179 12.0841 167.179 16.9795C167.179 21.7805 165.516 22.1964 164.325 22.1964ZM181.393 7.7178C178.633 7.7178 176.857 8.51167 175.401 10.0805C173.946 11.6682 173.549 13.9553 173.549 16.9417C173.549 19.966 173.946 22.272 175.401 23.8597C176.857 25.4474 178.633 26.2413 181.355 26.2413C184.134 26.2413 185.91 25.4474 187.347 23.8786C188.783 22.3098 189.18 20.0038 189.18 16.9795C189.18 13.9364 188.802 11.6493 187.366 10.0805C185.929 8.51167 184.153 7.7178 181.393 7.7178ZM181.374 22.1964C179.03 22.1964 178.52 20.4574 178.52 16.9795C178.52 13.4639 179.049 11.706 181.393 11.706C182.546 11.706 184.228 12.0841 184.228 16.9795C184.228 21.7805 182.565 22.1964 181.374 22.1964Z" fill="white"/>
<path d="M127.845 8.24701H123.082H118.905V12.1029H123.082V25.6553H123.138H127.788H127.845V12.1029H132.022V8.24701H127.845Z" fill="white"/>
<path d="M41.8994 11.4638L40.8583 13.8435C40.7988 13.9724 40.6204 13.9625 40.5708 13.8336C40.2237 12.9016 40.0948 12.3265 40.1742 11.8604C40.3031 11.1565 40.9972 10.1847 42.3159 8.5388L44.5469 5.74266C44.6361 5.6336 44.5469 5.46503 44.3981 5.49478L40.8583 6.02029C36.4162 6.68462 34.3935 9.39152 34.3142 9.50059L34.1357 9.74847C34.1258 9.7683 34.1159 9.78813 34.106 9.80796L34.0465 10.1054C34.0366 10.1649 33.7788 11.4143 33.8878 13.1693C33.8878 13.2288 33.8581 13.2883 33.7986 13.318C33.6102 13.4172 33.4317 13.5064 33.2632 13.6055C33.164 13.665 33.0351 13.5956 33.0252 13.4866C32.9657 12.6239 32.6286 10.7202 30.8835 8.83626L28.474 6.2186C28.3749 6.10953 28.2063 6.17894 28.2063 6.32767L28.1766 9.46093C28.1766 9.59974 28.008 9.66915 27.9089 9.56999C26.9669 8.63795 26.5108 8.07277 26.3819 7.53734C26.2133 6.84327 26.4711 5.68317 27.0165 3.64061L27.9485 0.199972C27.9882 0.0611573 27.8395 -0.0479105 27.7106 0.021497L24.6764 1.8955C20.859 4.25536 20.0856 7.54726 20.0559 7.68607L19.9865 7.98353C19.9865 8.00337 19.9766 8.0232 19.9865 8.05294L20.046 8.3504C20.0559 8.4099 20.3236 9.64932 21.1267 11.2259C21.1565 11.2854 21.1466 11.3548 21.1069 11.3944C20.9879 11.5332 20.8789 11.6721 20.7797 11.8109C20.7103 11.9001 20.5715 11.8902 20.5219 11.791C20.0361 10.9581 18.9751 9.56008 16.883 8.61812L13.6406 7.14073C13.5117 7.08124 13.3729 7.21014 13.4324 7.33904L14.7908 10.6309C14.8107 10.6805 14.8305 10.7301 14.8503 10.7797L14.8305 10.7698C13.1052 10.1748 12.2723 9.81788 11.8757 9.3122C11.4295 8.74702 11.1618 7.58692 10.8048 5.51461L10.1901 2.01449C10.1703 1.87567 9.98187 1.83601 9.90254 1.95499L7.94922 4.9296C5.49021 8.67761 6.17437 11.9794 6.21403 12.1182L6.28343 12.4157C6.28343 12.4355 6.29335 12.4554 6.31318 12.4752L6.49166 12.7231C6.53132 12.7727 7.28489 13.7741 8.66312 14.8549C8.7127 14.8945 8.73253 14.954 8.72262 15.0234C8.69287 15.1424 8.66312 15.2713 8.63338 15.3903C8.61355 15.4994 8.48465 15.549 8.38549 15.4796C7.61209 14.9144 6.05538 14.0617 3.73518 14.0418L0.155735 14.022C0.0169201 14.022 -0.0524881 14.1906 0.0466656 14.2897L2.65441 16.7487C3.46747 17.5122 4.20121 18.2261 4.34002 18.6426C4.43918 18.9499 4.32019 19.5647 4.04256 20.6455L3.66578 22.1229C3.64595 22.2121 3.70544 22.3013 3.79468 22.3112L5.2919 22.569C6.54123 22.7872 7.21548 23.6498 8.27642 24.9983C9.94221 27.1004 10.7949 27.8143 10.7949 27.8143C13.71 30.5013 17.3887 32.2663 21.335 32.8414C21.335 32.8414 22.0885 33 23.7147 33C25.4498 33 26.4315 32.8909 26.4315 32.8909C31.1908 32.0878 38.32 30.888 41.7805 21.756C41.7904 21.7163 41.8201 21.6866 41.8598 21.6667C42.2861 21.4684 42.6134 21.2701 42.8612 21.0421C43.1488 20.7744 43.3471 20.467 43.4462 20.1299C43.714 19.4754 44.3386 17.4626 43.3868 14.8053L42.1969 11.4638C42.1473 11.3349 41.9589 11.3349 41.8994 11.4638Z" fill="white"/>
<path d="M25.0338 23.4121C25.0239 23.3923 25.014 23.3725 25.0041 23.3625C24.9942 23.3526 24.9843 23.3526 24.9743 23.3427C24.9644 23.3328 24.9446 23.3229 24.9248 23.313C24.6372 23.1642 23.8341 22.7775 22.8822 22.5891C22.8624 22.5891 22.8425 22.5891 22.8326 22.5891C22.793 22.5991 22.7533 22.6387 22.7434 22.6784C22.6442 23.1543 22.5847 23.6005 22.555 24.0269C22.555 24.0269 22.555 24.0368 22.555 24.0467C22.8425 24.1459 23.1202 24.2549 23.378 24.3739C23.487 24.4235 23.4672 24.5821 23.3482 24.602C23.0607 24.6416 22.793 24.6912 22.5352 24.7408C22.5352 25.3754 22.6046 25.9405 22.7136 26.4462C22.7335 26.5156 22.7434 26.585 22.7632 26.6544C22.783 26.7338 22.8029 26.8131 22.8326 26.8825C22.8822 27.0312 22.9318 27.18 22.9813 27.3188C23.14 27.7253 23.3383 28.0823 23.5465 28.3797C23.5763 28.4194 23.6258 28.4392 23.6754 28.4293C23.7052 28.4194 23.725 28.4095 23.7448 28.3896C24.3199 27.5964 25.0933 25.9802 25.0537 23.4518C25.0338 23.4319 25.0338 23.422 25.0338 23.4121Z" fill="black"/>
<path d="M41.9093 15.3409C41.1557 17.4132 40.2038 18.1866 40.2038 18.1866C40.2038 18.1866 38.8058 18.9699 37.3978 18.9005C37.3978 21.0918 36.4558 23.7789 34.3042 25.6231C33.9076 25.1472 33.4614 24.6118 32.9954 24.0664C34.4232 20.5564 37.2887 16.8381 39.599 15.6185C38.5678 13.9032 38.6273 11.6226 38.6273 11.6226C38.6273 11.6226 38.9743 9.90729 41.0962 7.56727C37.2491 8.14236 35.5833 10.4229 35.5833 10.4229C35.5833 10.4229 35.2362 12.0788 35.5833 14.2502C32.7078 15.1624 32.1922 16.9869 32.1922 16.9869C32.1922 16.9869 31.3494 19.2178 31.5477 22.4304C30.7545 21.5678 29.9811 20.7646 29.3465 20.2292C30.11 19.436 30.4174 18.9204 30.4174 18.9204C30.4174 18.9204 30.9429 17.7008 29.7828 15.9457C30.933 14.9145 31.4783 13.8635 31.4783 13.8635C31.4783 13.8635 31.5775 11.8904 29.7431 9.89738C29.8621 12.0986 29.2969 13.1794 29.2969 13.1794C29.2969 13.1794 28.3153 14.4485 26.9966 14.9245C27.4824 16.0647 27.76 17.4727 27.6807 18.9402C26.7189 18.2759 25.7274 17.7305 24.716 17.2744C25.0829 14.9046 26.0943 12.7827 27.3535 11.2161C25.7175 10.056 24.8648 7.93413 24.8648 7.93413C24.8648 7.93413 24.4979 6.22869 25.5093 3.23425C22.2074 5.27682 21.5927 8.03329 21.5927 8.03329C21.5927 8.03329 21.9397 9.68915 23.1197 11.5433C20.849 13.5165 21.1068 15.4004 21.1068 15.4004C21.1068 15.4004 21.1763 15.6483 21.3547 16.1143C20.4822 15.8962 19.6096 15.7574 18.7569 15.6681C18.7172 15.6384 18.6776 15.6185 18.6379 15.5888C19.2923 14.2006 19.3816 13.0207 19.3816 13.0207C19.3816 13.0207 18.7073 11.1665 16.2285 10.0362C17.2002 12.0193 17.101 13.2389 17.101 13.2389C17.101 13.2389 16.7243 14.6766 15.7724 15.6384C15.1576 15.6879 14.5528 15.7673 13.9876 15.8863C13.9182 14.5973 14.0372 13.3578 14.3148 12.2572C12.3417 11.8904 10.666 10.3237 10.666 10.3237C10.666 10.3237 9.60503 8.92567 9.25799 5.79242C7.12619 9.03474 7.74094 11.7912 7.74094 11.7912C7.74094 11.7912 8.75231 13.1496 10.6164 14.3395C9.99173 15.7276 9.95206 16.8282 10.071 17.5719C9.28774 18.1866 8.72256 18.9204 8.45485 19.7532C8.37552 19.7334 8.28629 19.7235 8.20696 19.7037C8.22679 18.1668 7.83018 17.0563 7.83018 17.0563C7.83018 17.0563 6.45194 15.6384 3.72522 15.6185C5.43066 17.0265 5.83719 18.1866 5.83719 18.1866C5.83719 18.1866 6.10491 19.7632 5.55956 21.0522C7.42365 21.3694 8.49451 22.7179 9.47613 24.0168C9.67443 24.2945 9.88266 24.5523 10.0909 24.82C10.1305 24.8696 10.1801 24.9291 10.2198 24.9786C10.2198 24.9786 10.2198 24.9786 10.2297 24.9886C10.2991 25.0679 10.3685 25.1571 10.4379 25.2364C13.2241 28.449 17.1407 30.68 21.563 31.3245C21.4142 31.2848 21.2655 31.2451 21.1168 31.1956C20.502 30.9774 19.917 30.6998 19.3816 30.3627C18.4396 29.7777 17.6166 29.0142 16.9622 28.1317C15.8814 26.6742 15.237 24.8597 15.237 22.9063C15.237 22.7378 15.237 22.589 15.2469 22.4304C15.2469 22.3709 15.2964 22.3213 15.3559 22.3213C15.5146 22.3114 15.822 22.2916 16.0004 22.2817C16.5854 22.2519 17.2101 22.242 17.8744 22.242C18.0529 22.242 18.2314 22.242 18.4099 22.2519C18.5289 22.2519 18.6379 22.2618 18.747 22.2618C19.3518 22.2817 19.9467 22.3312 20.5318 22.3907C20.6012 22.4006 20.6507 22.47 20.6309 22.5395C20.5417 22.8766 20.4623 23.2137 20.4128 23.5707C21.0672 23.6797 21.8406 23.8384 22.5545 24.0763C22.5545 24.0763 22.5545 24.0664 22.5545 24.0565C22.5842 23.6302 22.6437 23.184 22.7429 22.708C22.7528 22.6584 22.7925 22.6287 22.8321 22.6188C22.8519 22.6188 22.8718 22.6089 22.8817 22.6188C23.8237 22.8072 24.6268 23.1939 24.9243 23.3426C24.9441 23.3525 24.9639 23.3624 24.9738 23.3724C24.9837 23.3823 24.9937 23.3823 25.0036 23.3922C25.0234 23.4021 25.0333 23.4219 25.0333 23.4418C25.0333 23.4517 25.0333 23.4616 25.0432 23.4715C25.0928 25.9999 24.3194 27.6161 23.7344 28.4094C23.7146 28.4292 23.6948 28.449 23.665 28.449C23.6154 28.4589 23.5659 28.449 23.5361 28.3994C23.3279 28.102 23.1296 27.7549 22.9709 27.3385C22.9214 27.1997 22.8619 27.0609 22.8222 26.9022C22.8024 26.8229 22.7726 26.7535 22.7528 26.6742C22.733 26.6048 22.7131 26.5354 22.7032 26.4659C22.5941 25.9702 22.5247 25.405 22.5247 24.7605C21.6522 24.9291 20.9383 25.1175 20.3731 25.286C20.5417 26.9815 21.2952 28.4986 22.0389 29.6289C22.6536 30.5709 23.2684 31.2451 23.546 31.5228C23.5559 31.5327 23.5659 31.5426 23.5659 31.5426C23.5659 31.5426 23.5659 31.5525 23.5758 31.5525C23.5758 31.5525 23.5857 31.5525 23.5857 31.5624C23.6055 31.5823 23.6353 31.5922 23.665 31.6021C23.6848 31.6021 23.7047 31.6021 23.7245 31.6021C23.7542 31.6021 23.784 31.5823 23.8038 31.5624C23.8137 31.5624 23.8137 31.5525 23.8237 31.5525C23.8336 31.5426 23.8336 31.5426 23.8435 31.5327C24.1112 31.2551 24.6962 30.6205 25.301 29.7182C26.1736 28.4193 27.066 26.5948 27.066 24.5721C27.066 24.4135 27.0561 24.2647 27.0461 24.1061C27.0362 24.0169 27.1255 23.9574 27.2048 23.9871C29.1482 24.7208 30.7644 25.5736 31.984 26.3073C32.0336 26.337 32.0534 26.4064 32.0336 26.456C31.7163 27.1699 31.3097 27.8243 30.8338 28.4193C30.0802 29.3513 29.1383 30.1247 28.0674 30.68C27.4725 30.9576 26.8478 31.1757 26.2033 31.3344C26.0645 31.3641 25.9158 31.4038 25.7671 31.4335C27.6113 31.2749 29.1383 30.9179 30.4769 30.442C31.637 30.1049 38.6868 27.7847 40.5509 20.5167C42.0084 20.021 41.9291 19.6739 41.9291 19.6739C41.9291 19.6739 42.8116 17.8892 41.9093 15.3409Z" fill="url(#paint0_linear)"/>
<defs>
<linearGradient id="paint0_linear" x1="23.0164" y1="31.3994" x2="23.0164" y2="3.58024" gradientUnits="userSpaceOnUse">
<stop stop-color="#FFDD00"/>
<stop offset="0.6704" stop-color="#FF5500"/>
<stop offset="1" stop-color="#FF5500"/>
</linearGradient>
</defs>
</svg>
