<svg width="60" height="71" viewBox="0 0 60 71" fill="none" xmlns="http://www.w3.org/2000/svg">
<path d="M38.0414 12.3713V5.04557C38.0414 2.26345 35.7779 0 32.9958 0H27.8509C25.0688 0 22.8053 2.26345 22.8053 5.04557V12.0854C19.9126 12.7843 17.1507 13.9109 14.597 15.436L12.3557 12.72C10.9815 11.0548 8.50881 10.8184 6.84344 12.1923L4.46742 14.1532C2.79842 15.5304 2.56173 17.996 3.93955 19.6654L6.39721 22.6436C2.25077 27.8906 0 34.3336 0 41.1233C0 57.6354 13.3623 71 29.8767 71C46.3886 71 59.7534 57.6377 59.7534 41.1233C59.7534 27.208 50.3336 15.8422 38.0414 12.3713ZM27.2634 5.04557C27.2634 4.72167 27.527 4.45808 27.8509 4.45808H32.9958C33.3197 4.45808 33.5834 4.72167 33.5834 5.04557V11.4727C31.4638 11.2121 29.3665 11.1796 27.2636 11.3607L27.2634 5.04557ZM9.26264 15.976L10.9408 18.0097C10.4287 18.4308 9.92969 18.8718 9.44222 19.3294L7.72321 17.2464L9.26264 15.976ZM29.8767 66.5419C15.8609 66.5419 4.45808 55.1391 4.45808 41.1233C4.45808 27.1074 15.8609 15.7046 29.8767 15.7046C43.8925 15.7046 55.2953 27.1074 55.2953 41.1233C55.2953 55.1391 43.8925 66.5419 29.8767 66.5419Z" fill="white"/>
<path d="M29.8767 21.3996C19.0012 21.3996 10.1531 30.2477 10.1531 41.1233C10.1531 51.9989 19.0012 60.8468 29.8767 60.8468C40.7521 60.8468 49.6002 51.9989 49.6002 41.1233C49.6002 30.2477 40.7521 21.3996 29.8767 21.3996ZM29.8767 56.3888C21.4592 56.3888 14.6112 49.5407 14.6112 41.1233C14.6112 32.7059 21.4592 25.8577 29.8767 25.8577C38.2941 25.8577 45.1421 32.7057 45.1421 41.1233C45.1421 49.5407 38.2941 56.3888 29.8767 56.3888Z" fill="white"/>
<path d="M29.8767 29.6251C28.6456 29.6251 27.6477 30.6231 27.6477 31.8541V41.1233C27.6477 42.3543 28.6456 43.3523 29.8767 43.3523C31.1078 43.3523 32.1057 42.3543 32.1057 41.1233V31.8541C32.1057 30.6231 31.1078 29.6251 29.8767 29.6251Z" fill="white"/>
</svg>
